<svg width="24" height="24" viewBox="0 0 24 24" fill="none" xmlns="http://www.w3.org/2000/svg">
  <path d="M7.2 7.6C5.8 6.5 4.3 6.4 3 7.3M4.2 4.4C5.9 3.4 8.1 3.4 9.8 4.8" stroke="black" stroke-width="1.4" stroke-linecap="round"/>
  <path d="M3.5 7.4L2 7.4L2.9 8.6" stroke="black" stroke-width="1.4" stroke-linecap="round" stroke-linejoin="round"/>
  <path d="M8.2 21.1C6.9 19.8 5.7 18.5 4.8 17.2L3.4 15.1C2.9 14.3 3.1 13.2 3.9 12.8C4.6 12.4 5.4 12.6 5.9 13.2L6.8 14.3V8.2C6.8 7.3 7.5 6.6 8.4 6.6C9.3 6.6 10 7.3 10 8.2V12.3V10.8C10 10 10.7 9.3 11.5 9.3C12.3 9.3 13 10 13 10.8V12.5V11.3C13 10.5 13.7 9.9 14.5 9.9C15.3 9.9 16 10.5 16 11.3V13V12.1C16 11.4 16.6 10.8 17.4 10.8C18.2 10.8 18.8 11.4 18.8 12.1V15.9C18.8 19.2 16.7 21.6 13.4 21.6H11.4C10.1 21.6 9 21.5 8.2 21.1Z" fill="white" stroke="black" stroke-width="1.4" stroke-linecap="round" stroke-linejoin="round"/>
</svg>
